<svg xmlns="http://www.w3.org/2000/svg" viewBox="0 0 16 16"><defs><style>.cls-1,.cls-3{fill:#f2f2f2}.cls-2{fill:#aaa}.cls-3{stroke:#aaa}.cls-3,.cls-5{stroke-miterlimit:1;stroke-width:.75px}.cls-4{fill:#7b7b97}.cls-5{fill:#def4fd;stroke:#7b7b97}</style></defs><title>server</title><g id="_3" data-name="3"><rect width="9.85" height="3.1" x="3.08" y="2.6" class="cls-1" rx="1.13" ry="1.13"/><path d="M11.8,3a.75.75,0,0,1,.75.75v.85a.75.75,0,0,1-.75.75H4.2a.75.75,0,0,1-.75-.75V3.73A.75.75,0,0,1,4.2,3h7.6m0-.75H4.2a1.5,1.5,0,0,0-1.5,1.5v.85a1.5,1.5,0,0,0,1.5,1.5h7.6a1.5,1.5,0,0,0,1.5-1.5V3.73a1.5,1.5,0,0,0-1.5-1.5Z" class="cls-2"/><line x1="6.37" x2="4.27" y1="4.15" y2="4.15" class="cls-3"/><path d="M4.2,6.45h7.6a1.13,1.13,0,0,1,1.13,1.13v.85A1.12,1.12,0,0,1,11.8,9.55H4.2A1.12,1.12,0,0,1,3.08,8.42V7.58A1.13,1.13,0,0,1,4.2,6.45Z" class="cls-1"/><path d="M11.8,6.82a.75.75,0,0,1,.75.75v.85a.75.75,0,0,1-.75.75H4.2a.75.75,0,0,1-.75-.75V7.57a.75.75,0,0,1,.75-.75h7.6m0-.75H4.2a1.5,1.5,0,0,0-1.5,1.5v.85a1.5,1.5,0,0,0,1.5,1.5h7.6a1.5,1.5,0,0,0,1.5-1.5V7.57a1.5,1.5,0,0,0-1.5-1.5Z" class="cls-4"/><line x1="6.37" x2="4.27" y1="8" y2="8" class="cls-5"/><path d="M4.2,10.3h7.6a1.12,1.12,0,0,1,1.12,1.12v.85A1.12,1.12,0,0,1,11.8,13.4H4.2a1.13,1.13,0,0,1-1.13-1.13v-.85A1.12,1.12,0,0,1,4.2,10.3Z" class="cls-1"/><path d="M11.8,10.68a.75.75,0,0,1,.75.75v.85a.75.75,0,0,1-.75.75H4.2a.75.75,0,0,1-.75-.75v-.85a.75.75,0,0,1,.75-.75h7.6m0-.75H4.2a1.5,1.5,0,0,0-1.5,1.5v.85a1.5,1.5,0,0,0,1.5,1.5h7.6a1.5,1.5,0,0,0,1.5-1.5v-.85a1.5,1.5,0,0,0-1.5-1.5Z" class="cls-2"/><line x1="6.37" x2="4.27" y1="11.85" y2="11.85" class="cls-3"/></g></svg>