<svg xmlns="http://www.w3.org/2000/svg" viewBox="0 0 16 16"><defs><style>.cls-1,.cls-3{fill:#f2f2f2}.cls-2{fill:#aaa}.cls-3{stroke:#aaa}.cls-3,.cls-5{stroke-miterlimit:1;stroke-width:.75px}.cls-4{fill:#7b7b97}.cls-5{fill:#def4fd;stroke:#7b7b97}.cls-6{fill:none;stroke:#d0021b;stroke-linecap:round;stroke-linejoin:round;stroke-width:1.5px}</style></defs><title>serverbad</title><g id="_3" data-name="3"><path d="M3.45,2.9H11A1.13,1.13,0,0,1,12.17,4v.85A1.13,1.13,0,0,1,11,6H3.45A1.12,1.12,0,0,1,2.33,4.88V4A1.13,1.13,0,0,1,3.45,2.9Z" class="cls-1"/><path d="M11.05,3.27A.75.75,0,0,1,11.8,4v.85a.75.75,0,0,1-.75.75H3.45a.75.75,0,0,1-.75-.75V4a.75.75,0,0,1,.75-.75h7.6m0-.75H3.45A1.5,1.5,0,0,0,1.95,4v.85a1.5,1.5,0,0,0,1.5,1.5h7.6a1.5,1.5,0,0,0,1.5-1.5V4a1.5,1.5,0,0,0-1.5-1.5Z" class="cls-2"/><line x1="5.62" x2="3.52" y1="4.45" y2="4.45" class="cls-3"/><path d="M3.45,6.75H11a1.13,1.13,0,0,1,1.13,1.13v.85A1.12,1.12,0,0,1,11,9.85H3.45A1.12,1.12,0,0,1,2.33,8.73V7.88A1.13,1.13,0,0,1,3.45,6.75Z" class="cls-1"/><path d="M11.05,7.13a.75.75,0,0,1,.75.75v.85a.75.75,0,0,1-.75.75H3.45a.75.75,0,0,1-.75-.75V7.88a.75.75,0,0,1,.75-.75h7.6m0-.75H3.45a1.5,1.5,0,0,0-1.5,1.5v.85a1.5,1.5,0,0,0,1.5,1.5h7.6a1.5,1.5,0,0,0,1.5-1.5V7.88a1.5,1.5,0,0,0-1.5-1.5Z" class="cls-4"/><line x1="5.62" x2="3.52" y1="8.3" y2="8.3" class="cls-5"/><path d="M3.45,10.6H11a1.13,1.13,0,0,1,1.13,1.13v.85A1.12,1.12,0,0,1,11,13.7H3.45a1.12,1.12,0,0,1-1.12-1.12v-.85A1.13,1.13,0,0,1,3.45,10.6Z" class="cls-1"/><path d="M11.05,11a.75.75,0,0,1,.75.75v.85a.75.75,0,0,1-.75.75H3.45a.75.75,0,0,1-.75-.75v-.85A.75.75,0,0,1,3.45,11h7.6m0-.75H3.45a1.5,1.5,0,0,0-1.5,1.5v.85a1.5,1.5,0,0,0,1.5,1.5h7.6a1.5,1.5,0,0,0,1.5-1.5v-.85a1.5,1.5,0,0,0-1.5-1.5Z" class="cls-2"/><line x1="5.62" x2="3.52" y1="12.15" y2="12.15" class="cls-3"/><line x1="14.05" x2="11.05" y1="1.92" y2="4.92" class="cls-6"/><line x1="14.05" x2="11.05" y1="4.92" y2="1.92" class="cls-6"/></g></svg>