<svg xmlns="http://www.w3.org/2000/svg" xmlns:xlink="http://www.w3.org/1999/xlink" id="Layer_1" x="0" y="0" version="1.1" viewBox="0 0 16 16" xml:space="preserve" style="enable-background:new 0 0 16 16"><style type="text/css">.st0{fill:#f2f2f2}.st1{fill:none;stroke:#c1cbd5;stroke-width:.75;stroke-linejoin:round}.st2{fill:#2195e7}</style><title>partition</title><g><g id="_2_1_"><path d="M0.5,7V1c0-0.6,0.4-1,1-1h9c0.6,0,1,0.4,1,1v6H0.5z" class="st0"/><line x1="6" x2="6" y1="4" y2="6.5" class="st1"/><g><path d="M10.5,0H6.4H5.6H1.5c-0.6,0-1,0.4-1,1v2.2l0,0V4v3h11V4V3.3V1C11.5,0.4,11.1,0,10.5,0z M10.5,0.8 c0.1,0,0.2,0.1,0.2,0.2v2.2H6.4V0.8H10.5z M1.2,1c0-0.1,0.1-0.2,0.2-0.2h4.1v2.5H1.2V1z M10.8,6.2H1.2V4h4.4h0.8h4.4 C10.8,4,10.8,6.2,10.8,6.2z" class="st2"/></g></g><g id="_2"><path d="M2.5,9V3c0-0.6,0.4-1,1-1h9c0.6,0,1,0.4,1,1v6H2.5z" class="st0"/><line x1="8" x2="8" y1="6" y2="8.5" class="st1"/><path d="M12.5,14h-9c-0.6,0-1-0.4-1-1v-2h11v2C13.5,13.6,13.1,14,12.5,14z" class="st0"/><line x1="8" x2="8" y1="10.5" y2="13.5" class="st1"/><g><path d="M12.5,2H8.4H7.6H3.5c-0.6,0-1,0.4-1,1v2.2l0,0V6v3h11V6V5.3V3C13.5,2.4,13.1,2,12.5,2z M12.5,2.8 c0.1,0,0.2,0.1,0.2,0.2v2.2H8.4V2.8H12.5z M3.2,3c0-0.1,0.1-0.2,0.2-0.2h4.1v2.5H3.2V3z M12.8,8.2H3.2V6h4.4h0.8h4.4 C12.8,6,12.8,8.2,12.8,8.2z" class="st2"/><path d="M2.5,13c0,0.6,0.4,1,1,1h9c0.6,0,1-0.4,1-1v-2.7h-11V13z M3.2,11h9.5v2c0,0.1-0.1,0.2-0.2,0.2h-9 c-0.1,0-0.2-0.1-0.2-0.2L3.2,11L3.2,11z" class="st2"/></g></g></g></svg>