<svg xmlns="http://www.w3.org/2000/svg" xmlns:xlink="http://www.w3.org/1999/xlink" id="Layer_1" x="0" y="0" version="1.1" viewBox="0 0 16 16" xml:space="preserve" style="enable-background:new 0 0 16 16"><style type="text/css">.st0{fill:#f2f2f2}.st1{fill:#c1cbd5}.st2{fill:#2195e7}.st3{fill:#f2f2f2;stroke:#34495e;stroke-width:.5;stroke-linejoin:bevel;stroke-miterlimit:10}.st4{fill:#34495e}</style><title>inherits</title><g><path d="M3.5,3h9c0.6,0,1,0.4,1,1v8c0,0.6-0.4,1-1,1h-9c-0.6,0-1-0.4-1-1V4C2.5,3.4,2.9,3,3.5,3z" class="st0"/><polygon points="13 9.1 8.4 9.1 8.4 6 7.6 6 7.6 9.1 3 9.1 3 9.9 7.6 9.9 7.6 13 8.4 13 8.4 9.9 13 9.9" class="st1"/><path d="M12.5,3h-9c-0.6,0-1,0.4-1,1v8c0,0.6,0.4,1,1,1h9c0.6,0,1-0.4,1-1V4C13.5,3.4,13.1,3,12.5,3z M12.5,3.8 c0.1,0,0.2,0.1,0.2,0.2v2.1H8.4V3.8H12.5z M3.5,3.8h4.1v2.4H3.2V4C3.2,3.9,3.4,3.8,3.5,3.8z M12.5,12.2h-9c-0.1,0-0.2-0.1-0.2-0.2 V6.9h9.5V12C12.8,12.1,12.6,12.2,12.5,12.2z" class="st2"/><path d="M4.1,7.6c-2,0-3.6-1.6-3.6-3.5c0-2,1.6-3.5,3.6-3.5c1.9,0,3.5,1.5,3.5,3.5C7.6,6,6,7.6,4.1,7.6L4.1,7.6z" class="st3"/><path d="M4.5,2.2H3.7v0H2.9v4h0.8V4.8h0.8c0.7,0,1.3-0.6,1.3-1.3S5.2,2.2,4.5,2.2z M4.5,4.1H3.7V2.9h0.9 c0.3,0,0.6,0.3,0.6,0.6S4.9,4.1,4.5,4.1z" class="st4"/></g></svg>