<svg xmlns="http://www.w3.org/2000/svg" xmlns:xlink="http://www.w3.org/1999/xlink" id="Layer_1" x="0" y="0" version="1.1" viewBox="0 0 50 50" xml:space="preserve" style="enable-background:new 0 0 50 50"><style type="text/css">.st0{fill:#222}</style><g><path d="M40,35V11c0-3.9-3.1-7-7-7H7c-3.9,0-7,3.1-7,7c0,3.1,2.1,5.8,5,6.7V39c0,3.9,3.1,7,7,7h31c3.9,0,7-3.1,7-7v-4 H40z M43,42c-0.8,0-1.8-1.4-2.5-3h5C44.9,40.5,43.8,42,43,42z M7,8h19.6C26.2,8.9,26,9.9,26,11c0,1,0.2,2,0.7,3H7c-1.7,0-3-1.3-3-3 S5.3,8,7,8z M36.7,42H12c-1.7,0-3-1.3-3-3V18h25v-4h-1c-1.7,0-3-1.3-3-3s1.3-3,3-3s3,1.3,3,3v28C36,40,36.2,41,36.7,42z" class="st0"/><rect width="4" height="4" x="13" y="21" class="st0"/><rect width="13" height="4" x="19" y="21" class="st0"/><rect width="4" height="4" x="13" y="28" class="st0"/><rect width="13" height="4" x="19" y="28" class="st0"/><rect width="4" height="4" x="13" y="35" class="st0"/><rect width="13" height="4" x="19" y="35" class="st0"/></g></svg>