<svg xmlns="http://www.w3.org/2000/svg" viewBox="0 0 16 16"><defs><style>.cls-1{fill:#fefabf}.cls-2{fill:#409ff4;stroke-linecap:round;stroke-linejoin:round;stroke-width:.75px;stroke:#b9871b}.cls-3{stroke:#b9871b;fill:#34495e;stroke-miterlimit:10;stroke-width:.5px}</style></defs><title>edbfunc</title><g id="_3" data-name="3"><polygon points="2.59 5.82 2.59 10.13 6.32 12.28 10.05 10.13 10.05 5.82 6.32 3.66 2.59 5.82" class="cls-1"/><line x1="6.32" x2="6.32" y1="7.98" y2="12.45" class="cls-2"/><line x1="10.21" x2="10.21" y1="5.75" y2="10.22" class="cls-2"/><line x1="2.44" x2="2.44" y1="5.75" y2="10.22" class="cls-2"/><line x1="6.33" x2="10.2" y1="7.98" y2="5.75" class="cls-2"/><line x1="2.45" x2="6.32" y1="5.73" y2="3.49" class="cls-2"/><line x1="6.33" x2="10.2" y1="12.45" y2="10.22" class="cls-2"/><line x1="6.32" x2="2.45" y1="7.98" y2="5.75" class="cls-2"/><line x1="10.2" x2="6.33" y1="5.73" y2="3.49" class="cls-2"/><line x1="6.32" x2="2.45" y1="12.45" y2="10.22" class="cls-2"/><polygon points="12.31 12.49 12.88 12.19 13.04 11.5 13.04 11.19 13.13 10.51 13.33 10.25 13.84 10 13.33 10 13.33 10 13.33 10 13.68 9.93 13.15 9.54 13.12 9.28 13.12 8.79 13.04 8.11 12.83 7.87 12.49 7.72 12.31 7.7 9.56 7.64 9.16 7.92 8.92 8.12 8.92 8.4 8.96 8.32 8.88 9.23 8.92 9.55 8.23 10 8.13 10.08 8.23 10 8.68 10.32 8.74 10.51 9 11.2 8.99 11.5 8.98 11.71 8.99 11.34 8.99 11.52 9.09 11.96 9.25 12.18 9.53 12.34 9.76 12.49 12.31 12.49" class="cls-1"/><path d="M12.12,12.4a1.11,1.11,0,0,0,.52-.13A.71.71,0,0,0,12.9,12a.9.9,0,0,0,.1-.35q0-.19,0-.37v.09c0-.17,0-.32,0-.43a2.34,2.34,0,0,1,0-.3.69.69,0,0,1,.06-.21.6.6,0,0,1,.11-.15.64.64,0,0,1,.16-.12l.16-.07.15,0s0,0,0,0l-.15,0-.16-.07a.63.63,0,0,1-.16-.12.61.61,0,0,1-.11-.15.7.7,0,0,1-.06-.21,2.35,2.35,0,0,1,0-.3q0-.18,0-.44V8.8c0-.12,0-.24,0-.37a.9.9,0,0,0-.1-.35.71.71,0,0,0-.27-.27,1.13,1.13,0,0,0-.52-.13V7.57h.13l.17,0,.18.06a.73.73,0,0,1,.18.1A.84.84,0,0,1,13,8a.92.92,0,0,1,.11.27,1.76,1.76,0,0,1,0,.32c0,.12,0,.47,0,.47a2,2,0,0,0,0,.38.6.6,0,0,0,.12.27.67.67,0,0,0,.25.18.17.17,0,0,1,0,.29.67.67,0,0,0-.25.18.6.6,0,0,0-.12.27,2,2,0,0,0,0,.38s0,.7,0,.8a.92.92,0,0,1-.11.27.83.83,0,0,1-.21.23.73.73,0,0,1-.18.1l-.18.06-.17,0h-.13Z" class="cls-3"/><path d="M9.89,7.68a1.11,1.11,0,0,0-.52.13.71.71,0,0,0-.27.27.9.9,0,0,0-.1.35q0,.19,0,.37V8.71C9,8.88,9,9,9,9.14a2.34,2.34,0,0,1,0,.3.69.69,0,0,1-.06.21.6.6,0,0,1-.11.15.64.64,0,0,1-.16.12L8.46,10l-.15,0s0,0,0,0l.15,0,.16.07a.63.63,0,0,1,.16.12.61.61,0,0,1,.11.15.7.7,0,0,1,.06.21,2.35,2.35,0,0,1,0,.3q0,.18,0,.44v-.09c0,.12,0,.24,0,.37a.9.9,0,0,0,.1.35.71.71,0,0,0,.27.27,1.13,1.13,0,0,0,.52.13v.11H9.75l-.17,0-.18-.06a.73.73,0,0,1-.18-.1A.84.84,0,0,1,9,12.08a.92.92,0,0,1-.11-.27,1.76,1.76,0,0,1,0-.32c0-.12,0-.47,0-.47a2,2,0,0,0,0-.38.6.6,0,0,0-.12-.27.67.67,0,0,0-.25-.18.17.17,0,0,1,0-.29.67.67,0,0,0,.25-.18.6.6,0,0,0,.12-.27,2,2,0,0,0,0-.38s0-.7,0-.8A.92.92,0,0,1,9,8a.83.83,0,0,1,.21-.23.73.73,0,0,1,.18-.1l.18-.06.17,0h.13Z" class="cls-3"/><line x1="10.13" x2="11.85" y1="9.33" y2="9.33" class="cls-2"/><line x1="10.13" x2="11.85" y1="10.75" y2="10.75" class="cls-2"/></g></svg>