<svg xmlns="http://www.w3.org/2000/svg" viewBox="0 0 16 16"><defs><style>.cls-1{fill:#f2f2f2}.cls-2{fill:#2195e7}.cls-3,.cls-4{stroke-width:.75px}.cls-3{fill:none;stroke:#c1cbd5;stroke-linejoin:round}.cls-4{fill:#def4fd;stroke:#2195e7;stroke-miterlimit:1}</style></defs><title>table</title><g id="_2" data-name="2"><rect width="10.15" height="8.71" x="2.92" y="3.65" class="cls-1" rx=".53" ry=".53"/><path d="M12.55,4a.15.15,0,0,1,.15.15v7.66a.15.15,0,0,1-.15.15H3.45a.15.15,0,0,1-.15-.15V4.17A.15.15,0,0,1,3.45,4h9.1m0-.75H3.45a.9.9,0,0,0-.9.9v7.66a.9.9,0,0,0,.9.9h9.1a.9.9,0,0,0,.9-.9V4.17a.9.9,0,0,0-.9-.9Z" class="cls-2"/><line x1="3.32" x2="12.69" y1="9.43" y2="9.43" class="cls-3"/><line x1="8.01" x2="8" y1="7.09" y2="11.97" class="cls-3"/><line x1="8.01" x2="8" y1="4.03" y2="6.58" class="cls-4"/><line x1="12.68" x2="3.32" y1="6.74" y2="6.74" class="cls-4"/></g></svg>