<svg xmlns="http://www.w3.org/2000/svg" viewBox="0 0 16 16"><defs><style>.cls-1{fill:#cbdff1}.cls-2,.cls-4{fill:none;stroke-linecap:round;stroke-linejoin:round;stroke-width:.75px}.cls-2{stroke:#6f6f6f}.cls-3{fill:#81602b}.cls-4{stroke:#c42e2e}</style></defs><title>coll-domains</title><g id="_2" data-name="2"><polygon points="8.72 9.96 3.68 9.96 3.68 5.55 6.2 3.03 8.72 5.55 8.72 9.96" class="cls-1"/><line x1="3.37" x2="3.37" y1="5.86" y2="10.27" class="cls-2"/><line x1="3.37" x2="9.04" y1="10.27" y2="10.27" class="cls-2"/><line x1="9.04" x2="9.04" y1="10.27" y2="5.86" class="cls-2"/><rect width="2.52" height="3.15" x="4.94" y="6.81" class="cls-3"/><line x1="2.42" x2="6.2" y1="6.81" y2="3.03" class="cls-4"/><line x1="6.2" x2="9.98" y1="3.03" y2="6.81" class="cls-4"/><polygon points="12.32 12.66 7.28 12.66 7.28 8.25 9.8 5.73 12.32 8.25 12.32 12.66" class="cls-1"/><line x1="6.97" x2="6.97" y1="8.56" y2="12.97" class="cls-2"/><line x1="6.97" x2="12.64" y1="12.97" y2="12.97" class="cls-2"/><line x1="12.64" x2="12.64" y1="12.97" y2="8.56" class="cls-2"/><rect width="2.52" height="3.15" x="8.54" y="9.51" class="cls-3"/><line x1="6.02" x2="9.8" y1="9.51" y2="5.73" class="cls-4"/><line x1="9.8" x2="13.58" y1="5.73" y2="9.51" class="cls-4"/></g></svg>