<svg xmlns="http://www.w3.org/2000/svg" viewBox="0 0 16 16"><defs><style>.cls-1{fill:#c8faff}.cls-2,.cls-3,.cls-5{fill:none;stroke-width:.75px}.cls-2,.cls-3{stroke:#5997ab}.cls-2,.cls-5{stroke-linejoin:round}.cls-3{stroke-miterlimit:10}.cls-4{fill:#5997ab}.cls-5{stroke:#c8faff;stroke-linecap:round}</style></defs><title>synonym</title><g id="_3" data-name="3"><rect width="8.67" height="7" x="5.35" y="2.61" class="cls-1" rx="1" ry="1"/><line x1="9.7" x2="9.7" y1="5.61" y2="9.61" class="cls-2"/><line x1="9.7" x2="9.7" y1="2.61" y2="6.11" class="cls-3"/><path d="M13,3.36a.25.25,0,0,1,.25.25v5a.25.25,0,0,1-.25.25H6.35a.25.25,0,0,1-.25-.25v-5a.25.25,0,0,1,.25-.25H13m0-.75H6.35a1,1,0,0,0-1,1v5a1,1,0,0,0,1,1H13a1,1,0,0,0,1-1v-5A1,1,0,0,0,13,2.61Z" class="cls-4"/><line x1="13.51" x2="5.85" y1="6.11" y2="6.11" class="cls-2"/><rect width="4.5" height="4.79" x="2.01" y="8.59" class="cls-4" rx="1" ry="1"/><line x1="3.39" x2="4.92" y1="11.84" y2="10.34" class="cls-5"/><line x1="4.92" x2="4.92" y1="11.82" y2="10.34" class="cls-5"/><line x1="4.92" x2="3.42" y1="10.34" y2="10.3" class="cls-5"/></g></svg>