<svg xmlns="http://www.w3.org/2000/svg" viewBox="0 0 64 64"><defs><style>.cls-1{fill:#f0ecb6}.cls-2{fill:#c18f35}.cls-3,.cls-8{fill:#c8ffac}.cls-4{fill:#48d601}.cls-5{fill:#d3d4f3}.cls-6{fill:#666bd1}.cls-11,.cls-7,.cls-9{fill:none}.cls-7{stroke:#666bd1}.cls-10,.cls-11,.cls-7,.cls-9{stroke-linejoin:round}.cls-7,.cls-9{opacity:.8}.cls-8{stroke:#48d601;stroke-miterlimit:10;opacity:.7}.cls-9{stroke:#c18f35}.cls-10{fill:#34495e;stroke:#34495e}.cls-11{stroke:#34495e;stroke-linecap:round}</style></defs><title>ex_aggregate</title><g id="ex_broadcast_motion"><rect width="8.28" height="9" x="38.42" y="27.25" class="cls-1"/><path d="M46.2,27.75v8H38.92v-8H46.2m1-1H37.92v10H47.2v-10Z" class="cls-2"/><rect width="8.28" height="9" x="46.72" y="27.25" class="cls-1"/><path d="M54.5,27.75v8H47.22v-8H54.5m1-1H46.22v10H55.5v-10Z" class="cls-2"/><path d="M39.92,45.23c-1.37,0-1.5-.13-1.5-1.5v-7.5H46.7v9Z" class="cls-3"/><path d="M46.2,36.73v8H39.92a3.25,3.25,0,0,1-.9-.08h0a2.18,2.18,0,0,1-.1-.92v-7H46.2m1-1H37.92v8c0,1.65.35,2,2,2H47.2v-10Z" class="cls-4"/><path d="M46.72,45.23v-9H55v7.5c0,1.37-.13,1.5-1.5,1.5Z" class="cls-3"/><path d="M54.5,36.73v7a3.29,3.29,0,0,1-.08.9,2.18,2.18,0,0,1-.92.1H47.22v-8H54.5m1-1H46.22v10H53.5c1.65,0,2-.35,2-2v-8Z" class="cls-4"/><path d="M38.42,27.27v-7.5c0-1.37.13-1.5,1.5-1.5H46.7v9Z" class="cls-5"/><path d="M46.2,18.77v8H38.92v-7a3.29,3.29,0,0,1,.08-.9,2.18,2.18,0,0,1,.92-.1H46.2m1-1H39.92c-1.65,0-2,.35-2,2v8H47.2v-10Z" class="cls-6"/><path d="M46.72,27.27v-9H53.5c1.37,0,1.5.13,1.5,1.5v7.5Z" class="cls-5"/><path d="M53.5,18.77a3.25,3.25,0,0,1,.9.08h0a2.18,2.18,0,0,1,.1.92v7H47.22v-8H53.5m0-1H46.22v10H55.5v-8c0-1.65-.35-2-2-2Z" class="cls-6"/><path d="M9,25.43V13.93c0-1.37.13-1.5,1.5-1.5h5.78v13Z" class="cls-5"/><path d="M15.81,12.93v12H9.53v-11a3.28,3.28,0,0,1,.08-.9,2.18,2.18,0,0,1,.92-.1h5.28m1-1H10.53c-1.65,0-2,.35-2,2v12h8.28v-14Z" class="cls-6"/><path d="M16.32,25.43v-13H22.1c1.37,0,1.5.13,1.5,1.5v11.5Z" class="cls-5"/><path d="M22.1,12.93A3.25,3.25,0,0,1,23,13h0a2.18,2.18,0,0,1,.1.92v11H16.82v-12H22.1m0-1H15.82v14H24.1v-12c0-1.65-.35-2-2-2Z" class="cls-6"/><line x1="9.06" x2="15.8" y1="18.77" y2="18.77" class="cls-7"/><line x1="16.08" x2="23.57" y1="18.77" y2="18.77" class="cls-7"/><path d="M10.53,51.45C9.16,51.45,9,51.33,9,50V38.45h7.28v13Z" class="cls-3"/><path d="M15.81,39V51H10.53a3.25,3.25,0,0,1-.9-.08h0a2.18,2.18,0,0,1-.1-.92V39h6.28m1-1H8.53V50c0,1.65.35,2,2,2h6.28V38Z" class="cls-4"/><path d="M16.32,51.45v-13H23.6V50c0,1.37-.13,1.5-1.5,1.5Z" class="cls-3"/><path d="M23.1,39V50a3.28,3.28,0,0,1-.08.9,2.18,2.18,0,0,1-.92.1H16.82V39H23.1m1-1H15.82V52H22.1c1.65,0,2-.35,2-2V38Z" class="cls-4"/><line x1="16.08" x2="23.57" y1="44.8" y2="44.8" class="cls-8"/><line x1="9.06" x2="15.8" y1="44.8" y2="44.8" class="cls-8"/><rect width="7.28" height="13" x="16.32" y="25.43" class="cls-1"/><path d="M23.1,25.93v12H16.82v-12H23.1m1-1H15.82v14H24.1v-14Z" class="cls-2"/><line x1="16.08" x2="23.57" y1="31.78" y2="31.78" class="cls-9"/><rect width="7.28" height="13" x="9.03" y="25.43" class="cls-1"/><path d="M15.81,25.93v12H9.53v-12h6.28m1-1H8.53v14h8.28v-14Z" class="cls-2"/><line x1="9.06" x2="15.8" y1="31.78" y2="31.78" class="cls-9"/><polygon points="37.01 23.11 33.87 24.12 35.16 20.39 37.01 23.11" class="cls-10"/><line x1="34.91" x2="25" y1="22.57" y2="19.04" class="cls-11"/><polygon points="37.01 40.87 33.87 39.87 35.16 43.6 37.01 40.87" class="cls-10"/><line x1="34.91" x2="25" y1="41.42" y2="44.95" class="cls-11"/><polygon points="37.07 31.78 34.43 33.76 34.43 29.8 37.07 31.78" class="cls-10"/><line x1="34.89" x2="25" y1="31.88" y2="31.92" class="cls-11"/></g></svg>