<svg xmlns="http://www.w3.org/2000/svg" id="_1" data-name="1" viewBox="0 0 64 64"><defs><style>.cls-1{fill:#34495e;stroke:#528d19;stroke-miterlimit:10}.cls-2{fill:#f0ecb6}.cls-3{fill:#c18f35}.cls-4{fill:#d3d4f3}.cls-5{fill:#666bd1}.cls-6{fill:#addff3}.cls-7{fill:#2980b9}.cls-8,.cls-9{fill:none;stroke-linejoin:round;opacity:.8}.cls-8{stroke:#666bd1}.cls-9{stroke:#c18f35}</style></defs><title>ex_join</title><path d="M30.27,41.36a4.42,4.42,0,0,0,2.05-.51,2.81,2.81,0,0,0,1.06-1.08,3.59,3.59,0,0,0,.4-1.4q.06-.75.06-1.46v.35c0-.68,0-1.25,0-1.72a9.28,9.28,0,0,1,.11-1.2,2.76,2.76,0,0,1,.26-.83,2.37,2.37,0,0,1,.44-.6,2.53,2.53,0,0,1,.62-.46,4,4,0,0,1,.64-.27,3.5,3.5,0,0,1,.6-.13c.19,0,.19-.1,0-.12a3.52,3.52,0,0,1-.6-.13,3.65,3.65,0,0,1-.64-.27,2.52,2.52,0,0,1-.62-.46,2.41,2.41,0,0,1-.44-.6,2.77,2.77,0,0,1-.26-.83,9.31,9.31,0,0,1-.11-1.2q0-.71,0-1.73v.36c0-.47,0-1-.06-1.46a3.58,3.58,0,0,0-.4-1.4,2.82,2.82,0,0,0-1.06-1.08,4.47,4.47,0,0,0-2.05-.51V22.2l.53,0a4.11,4.11,0,0,1,.67.11,5.12,5.12,0,0,1,.72.23,2.89,2.89,0,0,1,.7.41,3.34,3.34,0,0,1,.83.9A3.66,3.66,0,0,1,34.15,25a7,7,0,0,1,.16,1.29c0,.47,0,1.88,0,1.88a7.9,7.9,0,0,0,.12,1.5,2.37,2.37,0,0,0,.47,1.06,2.65,2.65,0,0,0,1,.73.69.69,0,0,1,0,1.17,2.66,2.66,0,0,0-1,.73,2.39,2.39,0,0,0-.47,1.06,7.9,7.9,0,0,0-.12,1.5s-.09,2.78-.18,3.17a3.65,3.65,0,0,1-.43,1.07,3.31,3.31,0,0,1-.83.9,2.9,2.9,0,0,1-.7.41,5.39,5.39,0,0,1-.72.23,4.34,4.34,0,0,1-.67.11l-.53,0Z" class="cls-1"/><path d="M41.14,49.88c-1.37,0-1.5-.13-1.5-1.5V19.88h7.28v30Z" class="cls-2"/><path d="M46.42,20.38v29H41.14a3.25,3.25,0,0,1-.9-.08h0a2.18,2.18,0,0,1-.1-.92v-28h6.28m1-1H39.14v29c0,1.65.35,2,2,2h6.28v-31Z" class="cls-3"/><path d="M46.9,49.88v-30h7.28v28.5c0,1.37-.13,1.5-1.5,1.5Z" class="cls-4"/><path d="M53.69,20.38v28a3.28,3.28,0,0,1-.08.9,2.18,2.18,0,0,1-.92.1H47.4v-29h6.28m1-1H46.4v31h6.28c1.65,0,2-.35,2-2v-29Z" class="cls-5"/><path d="M39.64,19.88v-4.5c0-1.37.13-1.5,1.5-1.5h5.78v6Z" class="cls-6"/><path d="M46.42,14.38v5H40.14v-4a3.28,3.28,0,0,1,.08-.9,2.18,2.18,0,0,1,.92-.1h5.28m1-1H41.14c-1.65,0-2,.35-2,2v5h8.28v-7Z" class="cls-7"/><path d="M46.91,19.88v-6h5.78c1.37,0,1.5.13,1.5,1.5v4.5Z" class="cls-6"/><path d="M52.69,14.38a3.25,3.25,0,0,1,.9.08h0a2.18,2.18,0,0,1,.1.92v4H47.41v-5h5.28m0-1H46.41v7h8.28v-5c0-1.65-.35-2-2-2Z" class="cls-7"/><line x1="46.67" x2="54.16" y1="26.23" y2="26.23" class="cls-8"/><line x1="39.67" x2="46.4" y1="26.23" y2="26.23" class="cls-9"/><line x1="46.67" x2="54.16" y1="32.23" y2="32.23" class="cls-8"/><line x1="39.67" x2="46.4" y1="32.23" y2="32.23" class="cls-9"/><line x1="46.67" x2="54.16" y1="38.23" y2="38.23" class="cls-8"/><line x1="39.67" x2="46.4" y1="38.23" y2="38.23" class="cls-9"/><line x1="46.67" x2="54.16" y1="44.23" y2="44.23" class="cls-8"/><line x1="39.67" x2="46.4" y1="44.23" y2="44.23" class="cls-9"/><path d="M11.34,29.31c-1.37,0-1.5-.13-1.5-1.5V16.31h7.28v13Z" class="cls-4"/><path d="M16.62,16.81v12H11.34a3.25,3.25,0,0,1-.9-.08h0a2.18,2.18,0,0,1-.1-.92v-11h6.28m1-1H9.34v12c0,1.65.35,2,2,2h6.28v-14Z" class="cls-5"/><path d="M17.11,29.31v-13h7.28v11.5c0,1.37-.13,1.5-1.5,1.5Z" class="cls-4"/><path d="M23.89,16.81v11a3.28,3.28,0,0,1-.08.9,2.18,2.18,0,0,1-.92.1H17.61v-12h6.28m1-1H16.61v14h6.28c1.65,0,2-.35,2-2v-12Z" class="cls-5"/><path d="M9.84,16.31v-4.5c0-1.37.13-1.5,1.5-1.5h5.78v6Z" class="cls-6"/><path d="M16.62,10.81v5H10.34v-4a3.28,3.28,0,0,1,.08-.9,2.18,2.18,0,0,1,.92-.1h5.28m1-1H11.34c-1.65,0-2,.35-2,2v5h8.28v-7Z" class="cls-7"/><path d="M17.11,16.31v-6h5.78c1.37,0,1.5.13,1.5,1.5v4.5Z" class="cls-6"/><path d="M22.89,10.81a3.25,3.25,0,0,1,.9.08h0a2.18,2.18,0,0,1,.1.92v4H17.61v-5h5.28m0-1H16.61v7h8.28v-5c0-1.65-.35-2-2-2Z" class="cls-7"/><line x1="16.87" x2="24.37" y1="22.66" y2="22.66" class="cls-8"/><line x1="9.87" x2="16.61" y1="22.66" y2="22.66" class="cls-8"/><path d="M11.34,53.46c-1.37,0-1.5-.13-1.5-1.5V40.46h7.28v13Z" class="cls-2"/><path d="M16.62,41V53H11.34a3.25,3.25,0,0,1-.9-.08h0a2.18,2.18,0,0,1-.1-.92V41h6.28m1-1H9.34V52c0,1.65.35,2,2,2h6.28V40Z" class="cls-3"/><path d="M17.11,53.46v-13h7.28V52c0,1.37-.13,1.5-1.5,1.5Z" class="cls-2"/><path d="M23.89,41V52a3.28,3.28,0,0,1-.08.9,2.18,2.18,0,0,1-.92.1H17.61V41h6.28m1-1H16.61V54h6.28c1.65,0,2-.35,2-2V40Z" class="cls-3"/><path d="M9.84,40.46V36c0-1.37.13-1.5,1.5-1.5h5.78v6Z" class="cls-6"/><path d="M16.62,35v5H10.34V36a3.28,3.28,0,0,1,.08-.9,2.18,2.18,0,0,1,.92-.1h5.28m1-1H11.34c-1.65,0-2,.35-2,2v5h8.28V34Z" class="cls-7"/><path d="M17.11,40.46v-6h5.78c1.37,0,1.5.13,1.5,1.5v4.5Z" class="cls-6"/><path d="M22.89,35a3.25,3.25,0,0,1,.9.08h0a2.18,2.18,0,0,1,.1.92v4H17.61V35h5.28m0-1H16.61v7h8.28V36c0-1.65-.35-2-2-2Z" class="cls-7"/><line x1="16.87" x2="24.37" y1="46.81" y2="46.81" class="cls-9"/><line x1="9.87" x2="16.61" y1="46.81" y2="46.81" class="cls-9"/></svg>