<svg xmlns="http://www.w3.org/2000/svg" xmlns:xlink="http://www.w3.org/1999/xlink" id="_1" data-name="1" viewBox="0 0 64 64"><defs><style>.cls-1,.cls-5{fill:#f0ecb6}.cls-2{fill:#c18f36}.cls-3{fill:#ffbd30}.cls-4{opacity:.8}.cls-5{stroke:#c18f36;stroke-miterlimit:10}.cls-6{fill:#addff3}.cls-7{fill:#2980b9}.cls-8{fill:url(#linear-gradient)}.cls-9{fill:#757272}.cls-10{fill:#fbf1c3}</style><linearGradient id="linear-gradient" x1="5.03" x2="14.71" y1="27.25" y2="36.93" gradientUnits="userSpaceOnUse"><stop offset="0" stop-color="#ceba59"/><stop offset="1" stop-color="#b76451"/></linearGradient></defs><title>ex_lock_rows</title><path d="M19.74,57.47c-1.37,0-1.5-.13-1.5-1.5V15.53h41V56c0,1.37-.13,1.5-1.5,1.5Z" class="cls-1"/><path d="M58.72,16V56a3.28,3.28,0,0,1-.08.9,2.18,2.18,0,0,1-.92.1h-38a3.25,3.25,0,0,1-.9-.08h0a2.18,2.18,0,0,1-.1-.92V16h40m1-1h-42V56c0,1.65.35,2,2,2h38c1.65,0,2-.35,2-2V15Z" class="cls-2"/><rect width="7.22" height="7.44" x="18.72" y="24.56" class="cls-3"/><rect width="7.22" height="7.44" x="35.13" y="41.11" class="cls-3"/><rect width="7.22" height="7.44" x="26.92" y="41.11" class="cls-3"/><g class="cls-4"><line x1="26.43" x2="26.43" y1="56.97" y2="15.97" class="cls-5"/><line x1="42.83" x2="42.83" y1="56.97" y2="15.97" class="cls-5"/><line x1="34.63" x2="34.63" y1="56.97" y2="15.97" class="cls-5"/><line x1="51.03" x2="51.03" y1="56.97" y2="15.97" class="cls-5"/><line x1="18.73" x2="58.7" y1="23.97" y2="23.97" class="cls-5"/><line x1="18.73" x2="58.7" y1="32.34" y2="32.34" class="cls-5"/><line x1="18.73" x2="58.7" y1="40.71" y2="40.71" class="cls-5"/><line x1="18.73" x2="58.7" y1="49.08" y2="49.08" class="cls-5"/></g><path d="M51,15.53v-9h6.69c1.37,0,1.5.13,1.5,1.5v7.5Z" class="cls-6"/><path d="M57.73,7a3.25,3.25,0,0,1,.9.08h0a2.18,2.18,0,0,1,.1.92v7H51.54V7h6.19m0-1H50.54V16h9.19V8c0-1.65-.35-2-2-2Z" class="cls-7"/><path d="M18.24,15.53V8c0-1.37.13-1.5,1.5-1.5h6.69v9Z" class="cls-6"/><path d="M25.93,7v8H18.74V8a3.28,3.28,0,0,1,.08-.9,2.18,2.18,0,0,1,.92-.1h6.19m1-1H19.74c-1.65,0-2,.35-2,2v8h9.19V6Z" class="cls-7"/><rect width="8.19" height="9" x="42.83" y="6.53" class="cls-6"/><path d="M50.52,7v8H43.33V7h7.18m1-1H42.34V16h9.19V6Z" class="cls-7"/><rect width="8.19" height="9" x="34.64" y="6.53" class="cls-6"/><path d="M42.33,7v8H35.14V7h7.18m1-1H34.15V16h9.19V6Z" class="cls-7"/><rect width="8.17" height="9" x="26.45" y="6.53" class="cls-6"/><path d="M34.13,7v8H26.95V7h7.17m1-1H26V16h9.18V6Z" class="cls-7"/><path id="Shape" d="M14.07,27.19H5.67a1.4,1.4,0,0,0-1.4,1.4v7A1.4,1.4,0,0,0,5.67,37h8.4a1.4,1.4,0,0,0,1.4-1.4v-7a1.4,1.4,0,0,0-1.4-1.4Zm0,8.4H5.67v-7h8.4Z" class="cls-8"/><path id="Shape-2" d="M13.37,27.19v-1.4a3.5,3.5,0,0,0-7,0s0,1.42,0,1.42H7.7s0-1.41,0-1.42a2.17,2.17,0,0,1,4.34,0v1.4Z" class="cls-9" data-name="Shape"/><rect width="8.4" height="7" x="5.67" y="28.59" class="cls-10"/></svg>