<svg xmlns="http://www.w3.org/2000/svg" id="_1" data-name="1" viewBox="0 0 64 64"><defs><style>.cls-1,.cls-4{fill:#f0ecb6}.cls-2{fill:#c18f36}.cls-3{opacity:.8}.cls-4{stroke:#c18f36}.cls-4,.cls-7{stroke-miterlimit:10}.cls-5{fill:#addff3}.cls-6{fill:#2980b9}.cls-7{fill:#d3d4f3;stroke:#c00}.cls-7,.cls-9{stroke-linecap:round;stroke-width:1.5px}.cls-8,.cls-9{fill:#528d19}.cls-9{stroke:#528d19;stroke-linejoin:round}</style></defs><title>ex_limit</title><path d="M12.79,53.47c-1.37,0-1.5-.13-1.5-1.5V19.53h41V52c0,1.37-.13,1.5-1.5,1.5Z" class="cls-1"/><path d="M51.77,20V52a3.28,3.28,0,0,1-.08.9,2.18,2.18,0,0,1-.92.1h-38a3.25,3.25,0,0,1-.9-.08h0a2.17,2.17,0,0,1-.1-.92V20h40m1-1h-42V52c0,1.65.35,2,2,2h38c1.65,0,2-.35,2-2V19Z" class="cls-2"/><g class="cls-3"><line x1="19.48" x2="19.48" y1="52.97" y2="19.97" class="cls-4"/><line x1="35.88" x2="35.88" y1="52.97" y2="19.97" class="cls-4"/><line x1="27.68" x2="27.68" y1="52.97" y2="19.97" class="cls-4"/><line x1="44.08" x2="44.08" y1="52.97" y2="19.97" class="cls-4"/><line x1="11.78" x2="51.75" y1="27.97" y2="27.97" class="cls-4"/><line x1="11.78" x2="51.75" y1="36.34" y2="36.34" class="cls-4"/><line x1="11.78" x2="51.75" y1="44.71" y2="44.71" class="cls-4"/></g><path d="M44.09,19.53v-9h6.69c1.37,0,1.5.13,1.5,1.5v7.5Z" class="cls-5"/><path d="M50.78,11a3.25,3.25,0,0,1,.9.08h0a2.18,2.18,0,0,1,.1.92v7H44.59V11h6.19m0-1H43.59V20h9.19V12c0-1.65-.35-2-2-2Z" class="cls-6"/><path d="M11.29,19.53V12c0-1.37.13-1.5,1.5-1.5h6.69v9Z" class="cls-5"/><path d="M19,11v8H11.79V12a3.28,3.28,0,0,1,.08-.9,2.18,2.18,0,0,1,.92-.1H19m1-1H12.79c-1.65,0-2,.35-2,2v8H20V10Z" class="cls-6"/><rect width="8.18" height="9" x="35.88" y="10.53" class="cls-5"/><path d="M43.57,11v8H36.38V11h7.18m1-1H35.39V20h9.19V10Z" class="cls-6"/><rect width="8.19" height="9" x="27.69" y="10.53" class="cls-5"/><path d="M35.38,11v8H28.19V11h7.18m1-1H27.2V20h9.19V10Z" class="cls-6"/><rect width="8.17" height="9" x="19.5" y="10.53" class="cls-5"/><path d="M27.18,11v8H20V11h7.17m1-1H19V20h9.18V10Z" class="cls-6"/><line x1="6.31" x2="57.77" y1="19.76" y2="19.77" class="cls-7"/><line x1="6.31" x2="57.77" y1="36.33" y2="36.34" class="cls-7"/><polygon points="56.25 34.71 58.78 31.33 53.72 31.33 56.25 34.71" class="cls-8"/><line x1="56.25" x2="56.25" y1="32.18" y2="21.94" class="cls-9"/><polygon points="7.75 34.71 10.28 31.33 5.22 31.33 7.75 34.71" class="cls-8"/><line x1="7.75" x2="7.75" y1="32.18" y2="21.94" class="cls-9"/></svg>