<svg xmlns="http://www.w3.org/2000/svg" id="_1" data-name="1" viewBox="0 0 64 64"><defs><style>.cls-1{fill:#d3d4f3}.cls-2{fill:#666bd1}.cls-10,.cls-13,.cls-3{fill:none}.cls-3{stroke:#666bd1}.cls-10,.cls-3,.cls-4,.cls-5{stroke-linejoin:round}.cls-10,.cls-3{opacity:.8}.cls-4,.cls-5{fill:#528d19;stroke:#528d19}.cls-5{stroke-linecap:round;stroke-width:2px}.cls-6{fill:#f0ecb6}.cls-7{fill:#c18f35}.cls-8{fill:#addff3}.cls-9{fill:#2980b9}.cls-10{stroke:#c18f35}.cls-11{fill:#def4fd}.cls-12{fill:#c00}.cls-13{stroke:#c00;stroke-miterlimit:10;stroke-width:1.5px}</style></defs><title>ex_merge_anti_join</title><path d="M10.12,18.59c-1.37,0-1.5-.13-1.5-1.5v-4c0-1.37.13-1.5,1.5-1.5h4.5v7Z" class="cls-1"/><path d="M14.12,12.11v6h-4a3.25,3.25,0,0,1-.9-.08h0a2.17,2.17,0,0,1-.1-.92v-4a3.29,3.29,0,0,1,.08-.9,2.18,2.18,0,0,1,.92-.1h4m1-1h-5c-1.65,0-2,.35-2,2v4c0,1.65.35,2,2,2h5v-8Z" class="cls-2"/><path d="M14.63,18.59v-7H25.81c1.37,0,1.5.13,1.5,1.5v4c0,1.37-.13,1.5-1.5,1.5Z" class="cls-1"/><path d="M25.81,12.11a3.25,3.25,0,0,1,.9.08h0a2.18,2.18,0,0,1,.1.92v4a3.28,3.28,0,0,1-.08.9,2.18,2.18,0,0,1-.92.1H15.13v-6H25.81m0-1H14.13v8H25.81c1.65,0,2-.35,2-2v-4c0-1.65-.35-2-2-2Z" class="cls-2"/><line x1="20.9" x2="20.9" y1="18.21" y2="11.97" class="cls-3"/><polygon points="28.49 38.11 25.11 35.58 25.11 40.64 28.49 38.11" class="cls-4"/><line x1="24.83" x2="17.73" y1="38.11" y2="38.11" class="cls-5"/><line x1="17.58" x2="17.58" y1="22.67" y2="38.11" class="cls-5"/><path d="M34.26,52.16c-1.37,0-1.5-.13-1.5-1.5V28.16H40v24Z" class="cls-6"/><path d="M39.54,28.66v23H34.26a3.25,3.25,0,0,1-.9-.08h0a2.18,2.18,0,0,1-.1-.92v-22h6.28m1-1H32.26v23c0,1.65.35,2,2,2h6.28v-25Z" class="cls-7"/><path d="M32.76,28.16v-4.5c0-1.37.13-1.5,1.5-1.5H40v6Z" class="cls-8"/><path d="M39.54,22.66v5H33.26v-4a3.28,3.28,0,0,1,.08-.9,2.18,2.18,0,0,1,.92-.1h5.28m1-1H34.26c-1.65,0-2,.35-2,2v5h8.28v-7Z" class="cls-9"/><line x1="32.79" x2="39.53" y1="34.51" y2="34.51" class="cls-10"/><line x1="32.79" x2="39.53" y1="40.51" y2="40.51" class="cls-10"/><line x1="32.79" x2="39.53" y1="46.51" y2="46.51" class="cls-10"/><rect width="7.28" height="24" x="40.06" y="28.16" class="cls-6"/><path d="M46.84,28.66v23H40.56v-23h6.28m1-1H39.56v25h8.28v-25Z" class="cls-7"/><path d="M47.32,52.16v-24h7.28v22.5c0,1.37-.13,1.5-1.5,1.5Z" class="cls-1"/><path d="M54.11,28.66v22a3.28,3.28,0,0,1-.08.9,2.18,2.18,0,0,1-.92.1H47.82v-23h6.28m1-1H46.82v25h6.28c1.65,0,2-.35,2-2v-23Z" class="cls-2"/><rect width="7.28" height="6" x="40.06" y="22.16" class="cls-8"/><path d="M46.84,22.66v5H40.56v-5h6.28m1-1H39.56v7h8.28v-7Z" class="cls-9"/><path d="M47.32,28.16v-6h5.78c1.37,0,1.5.13,1.5,1.5v4.5Z" class="cls-8"/><path d="M53.11,22.66a3.25,3.25,0,0,1,.9.08h0a2.17,2.17,0,0,1,.1.92v4H47.82v-5h5.28m0-1H46.83v7h8.28v-5c0-1.65-.35-2-2-2Z" class="cls-9"/><line x1="47.09" x2="54.58" y1="34.51" y2="34.51" class="cls-3"/><line x1="40.09" x2="46.82" y1="34.51" y2="34.51" class="cls-10"/><line x1="47.09" x2="54.58" y1="40.51" y2="40.51" class="cls-3"/><line x1="40.09" x2="46.82" y1="40.51" y2="40.51" class="cls-10"/><line x1="47.09" x2="54.58" y1="46.51" y2="46.51" class="cls-3"/><line x1="40.09" x2="46.82" y1="46.51" y2="46.51" class="cls-10"/><circle cx="50.83" cy="40.46" r="4.29" class="cls-11"/><path d="M50.83,36.92a3.54,3.54,0,1,1-3.54,3.54,3.55,3.55,0,0,1,3.54-3.54m0-1.5a5,5,0,1,0,5,5,5,5,0,0,0-5-5Z" class="cls-12"/><line x1="47.55" x2="54.06" y1="42.73" y2="38" class="cls-13"/></svg>