<svg xmlns="http://www.w3.org/2000/svg" id="_1" data-name="1" viewBox="0 0 64 64"><defs><style>.cls-1{fill:#d3d4f3}.cls-2{fill:#666bd1}.cls-3{fill:none;stroke:#666bd1}.cls-10,.cls-11,.cls-3{stroke-linejoin:round}.cls-3,.cls-6{opacity:.8}.cls-4,.cls-7{fill:#f0ecb6}.cls-5{fill:#c18f36}.cls-7{stroke:#c18f36;stroke-miterlimit:10}.cls-8{fill:#addff3}.cls-9{fill:#2980b9}.cls-10,.cls-11{fill:#528d19;stroke:#528d19}.cls-11{stroke-linecap:round;stroke-width:2px}</style></defs><title>ex_merge</title><path d="M9.5,17.48C8.13,17.48,8,17.36,8,16V12c0-1.37.13-1.5,1.5-1.5H14v7Z" class="cls-1"/><path d="M13.5,11v6h-4a3.25,3.25,0,0,1-.9-.08h0A2.18,2.18,0,0,1,8.5,16V12a3.28,3.28,0,0,1,.08-.9A2.18,2.18,0,0,1,9.5,11h4m1-1h-5c-1.65,0-2,.35-2,2v4c0,1.65.35,2,2,2h5V10Z" class="cls-2"/><path d="M14,17.48v-7H25.19c1.37,0,1.5.13,1.5,1.5v4c0,1.37-.13,1.5-1.5,1.5Z" class="cls-1"/><path d="M25.19,11a3.25,3.25,0,0,1,.9.08h0a2.18,2.18,0,0,1,.1.92v4a3.28,3.28,0,0,1-.08.9,2.18,2.18,0,0,1-.92.1H14.5V11H25.19m0-1H13.5v8H25.19c1.65,0,2-.35,2-2V12c0-1.65-.35-2-2-2Z" class="cls-2"/><line x1="20.27" x2="20.27" y1="17.1" y2="10.86" class="cls-3"/><path d="M32.89,53.5c-1.37,0-1.5-.13-1.5-1.5V27.56H56V52c0,1.37-.13,1.5-1.5,1.5Z" class="cls-4"/><path d="M55.49,28.06V52a3.29,3.29,0,0,1-.08.9,2.18,2.18,0,0,1-.92.1H32.89a3.25,3.25,0,0,1-.9-.08h0a2.18,2.18,0,0,1-.1-.92V28.06h23.6m1-1H30.89V52c0,1.65.35,2,2,2h21.6c1.65,0,2-.35,2-2V27.06Z" class="cls-5"/><g class="cls-6"><line x1="39.58" x2="39.58" y1="52.99" y2="28" class="cls-7"/><line x1="47.8" x2="47.8" y1="52.99" y2="28" class="cls-7"/><line x1="31.88" x2="55.47" y1="33.99" y2="33.99" class="cls-7"/><line x1="31.88" x2="55.47" y1="40.36" y2="40.36" class="cls-7"/><line x1="31.88" x2="55.47" y1="46.73" y2="46.73" class="cls-7"/></g><path d="M47.81,27.55v-6H54.5c1.37,0,1.5.13,1.5,1.5v4.5Z" class="cls-8"/><path d="M54.5,22.05a3.25,3.25,0,0,1,.9.08h0a2.18,2.18,0,0,1,.1.92v4H48.31v-5H54.5m0-1H47.31v7H56.5v-5c0-1.65-.35-2-2-2Z" class="cls-9"/><path d="M31.39,27.55v-4.5c0-1.37.13-1.5,1.5-1.5h6.69v6Z" class="cls-8"/><path d="M39.08,22.05v5H31.89v-4a3.28,3.28,0,0,1,.08-.9,2.18,2.18,0,0,1,.92-.1h6.19m1-1H32.89c-1.65,0-2,.35-2,2v5h9.19v-7Z" class="cls-9"/><rect width="8.19" height="6" x="39.6" y="21.55" class="cls-8"/><path d="M47.29,22.05v5H40.1v-5h7.18m1-1H39.11v7h9.19v-7Z" class="cls-9"/><polygon points="27.87 44 24.49 41.47 24.49 46.53 27.87 44" class="cls-10"/><line x1="24.21" x2="17.1" y1="44" y2="44" class="cls-11"/><line x1="16.96" x2="16.96" y1="21.56" y2="44" class="cls-11"/></svg>