<svg xmlns="http://www.w3.org/2000/svg" id="_1" data-name="1" viewBox="0 0 64 64"><defs><style>.cls-1,.cls-2,.cls-4,.cls-6,.cls-8{fill:#f3c7d7}.cls-1,.cls-2{stroke:#d04465}.cls-1,.cls-2,.cls-3,.cls-4,.cls-5,.cls-6,.cls-7,.cls-8{stroke-miterlimit:10}.cls-2,.cls-4,.cls-6,.cls-8{opacity:.5}.cls-3{fill:#addff3}.cls-3,.cls-4{stroke:#2980b9}.cls-5{fill:#f0ecb6}.cls-5,.cls-6{stroke:#c18f36}.cls-7{fill:#d3d4f3}.cls-7,.cls-8{stroke:#666bd1}.cls-10,.cls-9{fill:#646464;stroke:#646464;stroke-linejoin:round}.cls-10{stroke-linecap:round;stroke-width:2px}</style></defs><title>named_tuplestore_scan</title><rect width="31.05" height="7.04" x="22.81" y="22.32" class="cls-1" rx="1"/><line x1="34.89" x2="34.89" y1="29.08" y2="22.84" class="cls-2"/><line x1="28.83" x2="28.83" y1="29.08" y2="22.84" class="cls-2"/><line x1="41.27" x2="41.27" y1="29.08" y2="22.84" class="cls-2"/><line x1="47.4" x2="47.4" y1="29.08" y2="22.84" class="cls-2"/><rect width="31.05" height="7.04" x="22.81" y="34.68" class="cls-3" rx="1"/><line x1="34.89" x2="34.89" y1="41.44" y2="35.2" class="cls-4"/><line x1="28.83" x2="28.83" y1="41.44" y2="35.2" class="cls-4"/><line x1="41.27" x2="41.27" y1="41.44" y2="35.2" class="cls-4"/><line x1="47.4" x2="47.4" y1="41.44" y2="35.2" class="cls-4"/><rect width="31.05" height="7.04" x="22.81" y="47.24" class="cls-5" rx="1"/><line x1="34.89" x2="34.89" y1="54" y2="47.76" class="cls-6"/><line x1="28.83" x2="28.83" y1="54" y2="47.76" class="cls-6"/><line x1="41.27" x2="41.27" y1="54" y2="47.76" class="cls-6"/><line x1="47.4" x2="47.4" y1="54" y2="47.76" class="cls-6"/><rect width="31.05" height="7.04" x="22.81" y="9.72" class="cls-7" rx="1"/><line x1="34.89" x2="34.89" y1="16.47" y2="10.23" class="cls-8"/><line x1="28.83" x2="28.83" y1="16.47" y2="10.23" class="cls-8"/><line x1="41.27" x2="41.27" y1="16.47" y2="10.23" class="cls-8"/><line x1="47.4" x2="47.4" y1="16.47" y2="10.23" class="cls-8"/><polygon points="13.62 53.99 10.14 49.35 17.09 49.35 13.62 53.99" class="cls-9"/><line x1="13.62" x2="13.62" y1="49.98" y2="10.01" class="cls-10"/></svg>