<svg xmlns="http://www.w3.org/2000/svg" id="_1" data-name="1" viewBox="0 0 64 64"><defs><style>.cls-1,.cls-11,.cls-15,.cls-3,.cls-8{fill:none}.cls-1,.cls-8{stroke:#666bd1}.cls-1,.cls-3{stroke-linecap:round}.cls-1,.cls-11,.cls-3,.cls-8{stroke-linejoin:round}.cls-1,.cls-15,.cls-3{stroke-width:1.5px}.cls-2{fill:#666bd1}.cls-3{stroke:#8d8119}.cls-4{fill:#8d8119}.cls-5{fill:#d3d4f3}.cls-6{fill:#addff3}.cls-7{fill:#2980b9}.cls-11,.cls-8{opacity:.8}.cls-9{fill:#f0ecb6}.cls-10{fill:#c18f35}.cls-11{stroke:#c18f35}.cls-12{fill:#34495e;stroke:#528d19}.cls-12,.cls-15{stroke-miterlimit:10}.cls-13{fill:#def4fd}.cls-14{fill:#c00}.cls-15{stroke:#c00}</style></defs><title>ex_nested_loop_anti_join</title><path d="M8.68,22.32c0-.35.06-3.69.17-4a3,3,0,0,1,2.83-2h14a3,3,0,0,1,3,3v24a3,3,0,0,1-3,3h-14a3,3,0,0,1-3-3V28.46" class="cls-1"/><polygon points="8.68 25.98 6.45 28.95 10.9 28.95 8.68 25.98" class="cls-2"/><path d="M12.18,24.82c0-.26,0-3.48,0-3.68.11-1.07.58-1.32,2-1.32h9c1.65,0,2,.35,2,2v19c0,1.65-.35,2-2,2H14.42c-1.65,0-2-.35-2-2V29.18" class="cls-3"/><polygon points="12.4 27.99 10.42 30.37 14.18 30.37 12.4 27.99" class="cls-4"/><path d="M48.87,46.94v-24h7.28v22.5c0,1.37-.13,1.5-1.5,1.5Z" class="cls-5"/><path d="M55.65,23.44v22a3.28,3.28,0,0,1-.08.9,2.18,2.18,0,0,1-.92.1H49.37v-23h6.28m1-1H48.37v25h6.28c1.65,0,2-.35,2-2v-23Z" class="cls-2"/><path d="M48.87,22.94v-6h5.78c1.37,0,1.5.13,1.5,1.5v4.5Z" class="cls-6"/><path d="M54.65,17.44a3.25,3.25,0,0,1,.9.08h0a2.17,2.17,0,0,1,.1.92v4H49.37v-5h5.28m0-1H48.37v7h8.28v-5c0-1.65-.35-2-2-2Z" class="cls-7"/><line x1="48.63" x2="56.12" y1="29.29" y2="29.29" class="cls-8"/><line x1="48.63" x2="56.12" y1="35.29" y2="35.29" class="cls-8"/><line x1="48.63" x2="56.12" y1="41.29" y2="41.29" class="cls-8"/><path d="M43.1,46.94c-1.37,0-1.5-.13-1.5-1.5V22.94h7.28v24Z" class="cls-9"/><path d="M48.38,23.44v23H43.1a3.25,3.25,0,0,1-.9-.08h0a2.18,2.18,0,0,1-.1-.92v-22h6.28m1-1H41.1v23c0,1.65.35,2,2,2h6.28v-25Z" class="cls-10"/><path d="M41.6,22.94v-4.5c0-1.37.13-1.5,1.5-1.5h5.78v6Z" class="cls-6"/><path d="M48.38,17.44v5H42.1v-4a3.29,3.29,0,0,1,.08-.9,2.18,2.18,0,0,1,.92-.1h5.28m1-1H43.1c-1.65,0-2,.35-2,2v5h8.28v-7Z" class="cls-7"/><line x1="41.63" x2="48.37" y1="29.29" y2="29.29" class="cls-11"/><line x1="41.63" x2="48.37" y1="35.29" y2="35.29" class="cls-11"/><line x1="41.63" x2="48.37" y1="41.29" y2="41.29" class="cls-11"/><path d="M33.87,35.61A9.28,9.28,0,0,1,34,34.4a2.76,2.76,0,0,1,.26-.83,2.37,2.37,0,0,1,.44-.6,2.53,2.53,0,0,1,.62-.46,4,4,0,0,1,.64-.27,3.5,3.5,0,0,1,.6-.13c.19,0,.19-.1,0-.12a3.52,3.52,0,0,1-.6-.13,3.65,3.65,0,0,1-.64-.27,2.52,2.52,0,0,1-.62-.46,2.41,2.41,0,0,1-.44-.6,2.77,2.77,0,0,1-.26-.83,9.31,9.31,0,0,1-.11-1.2c0-.47.5.77.58,1.18a2.37,2.37,0,0,0,.47,1.06,2.65,2.65,0,0,0,1,.73.69.69,0,0,1,0,1.17,2.66,2.66,0,0,0-1,.73,2.39,2.39,0,0,0-.47,1.06C34.37,34.84,33.85,36.08,33.87,35.61Z" class="cls-12"/><circle cx="52.51" cy="35.29" r="4.29" class="cls-13"/><path d="M52.51,31.75A3.54,3.54,0,1,1,49,35.29a3.55,3.55,0,0,1,3.54-3.54m0-1.5a5,5,0,1,0,5,5,5,5,0,0,0-5-5Z" class="cls-14"/><line x1="49.22" x2="55.73" y1="37.57" y2="32.83" class="cls-15"/></svg>