<svg xmlns="http://www.w3.org/2000/svg" viewBox="0 0 64.03 64"><defs><style>.cls-1{fill:none;stroke:#d04465;stroke-linecap:round;stroke-linejoin:round;stroke-width:1.5px}.cls-2,.cls-4{fill:#e6e6e6}.cls-3{fill:#818181}.cls-4,.cls-5{stroke:#818181;stroke-miterlimit:10}.cls-5{fill:#d3d4f3;stroke:#666bd1}</style></defs><title>projectset</title><g id="_1" data-name="1"><line x1="53.64" x2="54.58" y1="20.63" y2="18.35" class="cls-1"/><line x1="51.36" x2="52.52" y1="26.18" y2="23.36" class="cls-1"/><line x1="41.33" x2="50.31" y1="50.52" y2="28.73" class="cls-1"/><line x1="10.38" x2="9.45" y1="20.63" y2="18.35" class="cls-1"/><line x1="12.67" x2="11.51" y1="26.18" y2="23.36" class="cls-1"/><line x1="22.7" x2="13.72" y1="50.52" y2="28.73" class="cls-1"/><line x1="20.61" x2="19.44" y1="32.38" y2="29.56" class="cls-1"/><line x1="28.13" x2="21.66" y1="50.52" y2="34.93" class="cls-1"/><line x1="21.34" x2="20.84" y1="9.61" y2="8.73" class="cls-1"/><line x1="24.27" x2="22.39" y1="16.64" y2="12.16" class="cls-1"/><line x1="43.58" x2="44.74" y1="32.38" y2="29.56" class="cls-1"/><line x1="36.05" x2="42.53" y1="50.52" y2="34.93" class="cls-1"/><line x1="43.56" x2="44.11" y1="10.89" y2="9.64" class="cls-1"/><line x1="41.07" x2="42.51" y1="16.85" y2="13.44" class="cls-1"/><path d="M14.41,63.53v-4a3.5,3.5,0,0,1,3.5-3.5h28.5a3.5,3.5,0,0,1,3.5,3.5v4Z" class="cls-2"/><path d="M46.41,56.49a3,3,0,0,1,3,3V63H14.91V59.49a3,3,0,0,1,3-3h28.5m0-1H17.91a4,4,0,0,0-4,4V64h36.5V59.49a4,4,0,0,0-4-4Z" class="cls-3"/><path d="M22.27,55.9l-1.85-5.48a.11.11,0,0,1,.09-.05h23.3a.11.11,0,0,1,.09.05L42.05,55.9Z" class="cls-2"/><path d="M43.22,50.87,41.69,55.4H22.63L21.1,50.87H43.22m.59-1H20.51a.6.6,0,0,0-.6.6l2,5.93h20.5l2-5.93a.6.6,0,0,0-.6-.6Z" class="cls-3"/><path d="M32.08,61.06a1.39,1.39,0,1,1,1.38-1.38A1.38,1.38,0,0,1,32.08,61.06Z" class="cls-2"/><path d="M32.08,58.79a.89.89,0,1,1-.89.89.89.89,0,0,1,.89-.89m0-1A1.89,1.89,0,1,0,34,59.68a1.89,1.89,0,0,0-1.88-1.89Z" class="cls-3"/><line x1="21.17" x2="28.29" y1="52.28" y2="52.28" class="cls-4"/><line x1="21.83" x2="34.69" y1="54.08" y2="54.08" class="cls-4"/></g><g id="ex_append"><path d="M22.06,23.87H42a0,0,0,0,1,0,0v3a1,1,0,0,1-1,1H23.06a1,1,0,0,1-1-1v-3A0,0,0,0,1,22.06,23.87Z" class="cls-5"/><rect width="5" height="4" x="27.07" y="23.87" class="cls-5"/><rect width="5" height="4" x="32.03" y="23.87" class="cls-5"/><path d="M23.06,20.13H41a1,1,0,0,1,1,1v3a0,0,0,0,1,0,0H22.06a0,0,0,0,1,0,0v-3A1,1,0,0,1,23.06,20.13Z" class="cls-5"/><rect width="5" height="4" x="27.07" y="20.13" class="cls-5"/><rect width="5" height="4" x="32.03" y="20.13" class="cls-5"/></g></svg>