<svg xmlns="http://www.w3.org/2000/svg" id="_1" data-name="1" viewBox="0 0 64 64"><defs><style>.cls-1,.cls-6{fill:#f0ecb6}.cls-2{fill:#c18f36}.cls-3{fill:#addff3}.cls-4{fill:#2980b9}.cls-5{opacity:.8}.cls-6{stroke:#34495e;stroke-miterlimit:10}</style></defs><title>ex_result</title><path d="M10,57.47c-1.37,0-1.5-.13-1.5-1.5V15.53h47V56c0,1.37-.13,1.5-1.5,1.5Z" class="cls-1"/><path d="M55,16V56a3.28,3.28,0,0,1-.08.9A2.18,2.18,0,0,1,54,57H10a3.25,3.25,0,0,1-.9-.08h0A2.17,2.17,0,0,1,9,56V16H55m1-1H8V56c0,1.65.35,2,2,2H54c1.65,0,2-.35,2-2V15Z" class="cls-2"/><path d="M8.5,15.53V8c0-1.37.13-1.5,1.5-1.5H54c1.37,0,1.5.13,1.5,1.5v7.5Z" class="cls-3"/><path d="M54,7a3.25,3.25,0,0,1,.9.08h0A2.18,2.18,0,0,1,55,8v7H9V8a3.28,3.28,0,0,1,.08-.9A2.18,2.18,0,0,1,10,7H54m0-1H10C8.35,6,8,6.38,8,8v8H56V8c0-1.65-.35-2-2-2Z" class="cls-4"/><g class="cls-5"><line x1="14" x2="23.97" y1="25.97" y2="25.97" class="cls-6"/><line x1="14" x2="23.97" y1="34.34" y2="34.34" class="cls-6"/><line x1="14" x2="23.97" y1="42.71" y2="42.71" class="cls-6"/><line x1="14" x2="23.97" y1="51.08" y2="51.08" class="cls-6"/></g><g class="cls-5"><line x1="14" x2="23.97" y1="21.97" y2="21.97" class="cls-6"/><line x1="14" x2="23.97" y1="30.34" y2="30.34" class="cls-6"/><line x1="14" x2="23.97" y1="38.71" y2="38.71" class="cls-6"/><line x1="14" x2="23.97" y1="47.08" y2="47.08" class="cls-6"/></g><g class="cls-5"><line x1="14" x2="23.97" y1="11.03" y2="11.03" class="cls-6"/></g><g class="cls-5"><line x1="27" x2="36.97" y1="11.03" y2="11.03" class="cls-6"/></g><g class="cls-5"><line x1="40" x2="49.97" y1="11.03" y2="11.03" class="cls-6"/></g><g class="cls-5"><line x1="27" x2="36.97" y1="25.97" y2="25.97" class="cls-6"/><line x1="27" x2="36.97" y1="34.34" y2="34.34" class="cls-6"/><line x1="27" x2="36.97" y1="42.71" y2="42.71" class="cls-6"/><line x1="27" x2="36.97" y1="51.08" y2="51.08" class="cls-6"/></g><g class="cls-5"><line x1="27" x2="36.97" y1="21.97" y2="21.97" class="cls-6"/><line x1="27" x2="36.97" y1="30.34" y2="30.34" class="cls-6"/><line x1="27" x2="36.97" y1="38.71" y2="38.71" class="cls-6"/><line x1="27" x2="36.97" y1="47.08" y2="47.08" class="cls-6"/></g><g class="cls-5"><line x1="40" x2="49.97" y1="25.97" y2="25.97" class="cls-6"/><line x1="40" x2="49.97" y1="34.34" y2="34.34" class="cls-6"/><line x1="40" x2="49.97" y1="42.71" y2="42.71" class="cls-6"/><line x1="40" x2="49.97" y1="51.08" y2="51.08" class="cls-6"/></g><g class="cls-5"><line x1="40" x2="49.97" y1="21.97" y2="21.97" class="cls-6"/><line x1="40" x2="49.97" y1="30.34" y2="30.34" class="cls-6"/><line x1="40" x2="49.97" y1="38.71" y2="38.71" class="cls-6"/><line x1="40" x2="49.97" y1="47.08" y2="47.08" class="cls-6"/></g></svg>