<svg xmlns="http://www.w3.org/2000/svg" id="_1" data-name="1" viewBox="0 0 64 64"><defs><style>.cls-1{fill:#f0ecb6}.cls-2{fill:#c18f35}.cls-3{fill:#2980b9;stroke:#2980b9;stroke-linecap:round;stroke-linejoin:round;stroke-width:2px}</style></defs><title>ex_values_scan</title><rect width="6.98" height="5.69" x="20.5" y="14.17" class="cls-1" rx="1.5" ry="1.5"/><path d="M26,14.67a3.25,3.25,0,0,1,.9.08h0a2.18,2.18,0,0,1,.1.92v2.69a3.28,3.28,0,0,1-.08.9,2.18,2.18,0,0,1-.92.1H22a3.25,3.25,0,0,1-.9-.08h0a2.18,2.18,0,0,1-.1-.92V15.67a3.28,3.28,0,0,1,.08-.9,2.18,2.18,0,0,1,.92-.1h4m0-1H22c-1.65,0-2,.35-2,2v2.69c0,1.65.35,2,2,2h4c1.65,0,2-.35,2-2V15.67c0-1.65-.35-2-2-2Z" class="cls-2"/><rect width="6.98" height="5.69" x="33.5" y="17.17" class="cls-1" rx="1.5" ry="1.5"/><path d="M39,17.67a3.25,3.25,0,0,1,.9.08h0a2.18,2.18,0,0,1,.1.92v2.69a3.28,3.28,0,0,1-.08.9,2.18,2.18,0,0,1-.92.1H35a3.25,3.25,0,0,1-.9-.08h0a2.18,2.18,0,0,1-.1-.92V18.67a3.28,3.28,0,0,1,.08-.9,2.18,2.18,0,0,1,.92-.1h4m0-1H35c-1.65,0-2,.35-2,2v2.69c0,1.65.35,2,2,2h4c1.65,0,2-.35,2-2V18.67c0-1.65-.35-2-2-2Z" class="cls-2"/><rect width="6.98" height="5.69" x="46.5" y="20.14" class="cls-1" rx="1.5" ry="1.5"/><path d="M52,20.64a3.25,3.25,0,0,1,.9.08h0a2.17,2.17,0,0,1,.1.92v2.69a3.28,3.28,0,0,1-.08.9,2.18,2.18,0,0,1-.92.1H48a3.25,3.25,0,0,1-.9-.08h0a2.18,2.18,0,0,1-.1-.92V21.64a3.28,3.28,0,0,1,.08-.9,2.18,2.18,0,0,1,.92-.1h4m0-1H48c-1.65,0-2,.35-2,2v2.69c0,1.65.35,2,2,2h4c1.65,0,2-.35,2-2V21.64c0-1.65-.35-2-2-2Z" class="cls-2"/><rect width="6.98" height="5.69" x="20.5" y="26.25" class="cls-1" rx="1.5" ry="1.5"/><path d="M26,26.75a3.25,3.25,0,0,1,.9.08h0a2.17,2.17,0,0,1,.1.92v2.69a3.28,3.28,0,0,1-.08.9,2.18,2.18,0,0,1-.92.1H22a3.25,3.25,0,0,1-.9-.08h0a2.18,2.18,0,0,1-.1-.92V27.75a3.28,3.28,0,0,1,.08-.9,2.18,2.18,0,0,1,.92-.1h4m0-1H22c-1.65,0-2,.35-2,2v2.69c0,1.65.35,2,2,2h4c1.65,0,2-.35,2-2V27.75c0-1.65-.35-2-2-2Z" class="cls-2"/><rect width="6.98" height="5.69" x="33.5" y="29.25" class="cls-1" rx="1.5" ry="1.5"/><path d="M39,29.75a3.25,3.25,0,0,1,.9.08h0a2.17,2.17,0,0,1,.1.92v2.69a3.28,3.28,0,0,1-.08.9,2.18,2.18,0,0,1-.92.1H35a3.25,3.25,0,0,1-.9-.08h0a2.18,2.18,0,0,1-.1-.92V30.75a3.28,3.28,0,0,1,.08-.9,2.18,2.18,0,0,1,.92-.1h4m0-1H35c-1.65,0-2,.35-2,2v2.69c0,1.65.35,2,2,2h4c1.65,0,2-.35,2-2V30.75c0-1.65-.35-2-2-2Z" class="cls-2"/><rect width="6.98" height="5.69" x="46.5" y="32.22" class="cls-1" rx="1.5" ry="1.5"/><path d="M52,32.72a3.25,3.25,0,0,1,.9.08h0a2.18,2.18,0,0,1,.1.92v2.69a3.28,3.28,0,0,1-.08.9,2.18,2.18,0,0,1-.92.1H48a3.25,3.25,0,0,1-.9-.08h0a2.18,2.18,0,0,1-.1-.92V33.72a3.28,3.28,0,0,1,.08-.9,2.18,2.18,0,0,1,.92-.1h4m0-1H48c-1.65,0-2,.35-2,2v2.69c0,1.65.35,2,2,2h4c1.65,0,2-.35,2-2V33.72c0-1.65-.35-2-2-2Z" class="cls-2"/><rect width="6.98" height="5.69" x="20.5" y="38.17" class="cls-1" rx="1.5" ry="1.5"/><path d="M26,38.67a3.25,3.25,0,0,1,.9.08h0a2.18,2.18,0,0,1,.1.92v2.69a3.28,3.28,0,0,1-.08.9,2.18,2.18,0,0,1-.92.1H22a3.25,3.25,0,0,1-.9-.08h0a2.18,2.18,0,0,1-.1-.92V39.67a3.28,3.28,0,0,1,.08-.9,2.18,2.18,0,0,1,.92-.1h4m0-1H22c-1.65,0-2,.35-2,2v2.69c0,1.65.35,2,2,2h4c1.65,0,2-.35,2-2V39.67c0-1.65-.35-2-2-2Z" class="cls-2"/><rect width="6.98" height="5.69" x="33.5" y="41.17" class="cls-1" rx="1.5" ry="1.5"/><path d="M39,41.67a3.25,3.25,0,0,1,.9.08h0a2.18,2.18,0,0,1,.1.92v2.69a3.28,3.28,0,0,1-.08.9,2.18,2.18,0,0,1-.92.1H35a3.25,3.25,0,0,1-.9-.08h0a2.18,2.18,0,0,1-.1-.92V42.67a3.28,3.28,0,0,1,.08-.9,2.18,2.18,0,0,1,.92-.1h4m0-1H35c-1.65,0-2,.35-2,2v2.69c0,1.65.35,2,2,2h4c1.65,0,2-.35,2-2V42.67c0-1.65-.35-2-2-2Z" class="cls-2"/><rect width="6.98" height="5.69" x="46.5" y="44.14" class="cls-1" rx="1.5" ry="1.5"/><path d="M52,44.64a3.25,3.25,0,0,1,.9.08h0a2.17,2.17,0,0,1,.1.92v2.69a3.28,3.28,0,0,1-.08.9,2.18,2.18,0,0,1-.92.1H48a3.25,3.25,0,0,1-.9-.08h0a2.18,2.18,0,0,1-.1-.92V45.64a3.28,3.28,0,0,1,.08-.9,2.18,2.18,0,0,1,.92-.1h4m0-1H48c-1.65,0-2,.35-2,2v2.69c0,1.65.35,2,2,2h4c1.65,0,2-.35,2-2V45.64c0-1.65-.35-2-2-2Z" class="cls-2"/><polygon points="13.49 49.49 10.01 44.85 16.97 44.85 13.49 49.49" class="cls-3"/><line x1="13.49" x2="13.49" y1="45.48" y2="14.51" class="cls-3"/></svg>