<svg xmlns="http://www.w3.org/2000/svg" viewBox="0 0 64 64"><defs><style>.cls-1{fill:#f0ecb6}.cls-2{fill:#c18f35}.cls-3,.cls-8{fill:#c8ffac}.cls-4{fill:#48d601}.cls-5{fill:#d3d4f3}.cls-6{fill:#666bd1}.cls-10,.cls-7,.cls-9{fill:none}.cls-7{stroke:#666bd1}.cls-10,.cls-11,.cls-7,.cls-9{stroke-linejoin:round}.cls-7,.cls-9{opacity:.8}.cls-8{stroke:#48d601;stroke-miterlimit:10;opacity:.7}.cls-9{stroke:#c18f35}.cls-10,.cls-11{stroke:#34495e}.cls-10{stroke-linecap:round}.cls-11{fill:#34495e}</style></defs><title>ex_window_aggregate</title><g id="ex_broadcast_motion"><rect width="8.28" height="9" x="40.67" y="27.31" class="cls-1"/><path d="M48.45,27.81v8H41.17v-8h7.28m1-1H40.17v10h9.28v-10Z" class="cls-2"/><rect width="8.28" height="9" x="48.97" y="27.31" class="cls-1"/><path d="M56.75,27.81v8H49.47v-8h7.28m1-1H48.47v10h9.28v-10Z" class="cls-2"/><path d="M42.17,45.29c-1.37,0-1.5-.13-1.5-1.5v-7.5h8.28v9Z" class="cls-3"/><path d="M48.45,36.79v8H42.17a3.25,3.25,0,0,1-.9-.08h0a2.17,2.17,0,0,1-.1-.92v-7h7.28m1-1H40.17v8c0,1.65.35,2,2,2h7.28v-10Z" class="cls-4"/><path d="M49,45.29v-9h8.28v7.5c0,1.37-.13,1.5-1.5,1.5Z" class="cls-3"/><path d="M56.75,36.79v7a3.28,3.28,0,0,1-.08.9,2.18,2.18,0,0,1-.92.1H49.47v-8h7.28m1-1H48.47v10h7.28c1.65,0,2-.35,2-2v-8Z" class="cls-4"/><path d="M40.67,27.33v-7.5c0-1.37.13-1.5,1.5-1.5h6.78v9Z" class="cls-5"/><path d="M48.45,18.83v8H41.17v-7a3.28,3.28,0,0,1,.08-.9,2.18,2.18,0,0,1,.92-.1h6.28m1-1H42.17c-1.65,0-2,.35-2,2v8h9.28v-10Z" class="cls-6"/><path d="M49,27.33v-9h6.78c1.37,0,1.5.13,1.5,1.5v7.5Z" class="cls-5"/><path d="M55.75,18.83a3.25,3.25,0,0,1,.9.08h0a2.17,2.17,0,0,1,.1.92v7H49.47v-8h6.28m0-1H48.47v10h9.28v-8c0-1.65-.35-2-2-2Z" class="cls-6"/><path d="M11.28,25.49V14c0-1.37.13-1.5,1.5-1.5h5.78v13Z" class="cls-5"/><path d="M18.06,13V25H11.78V14a3.28,3.28,0,0,1,.08-.9,2.18,2.18,0,0,1,.92-.1h5.28m1-1H12.78c-1.65,0-2,.35-2,2V26h8.28V12Z" class="cls-6"/><path d="M18.57,25.49v-13h5.78c1.37,0,1.5.13,1.5,1.5v11.5Z" class="cls-5"/><path d="M24.35,13a3.25,3.25,0,0,1,.9.08h0a2.18,2.18,0,0,1,.1.92V25H19.07V13h5.28m0-1H18.07V26h8.28V14c0-1.65-.35-2-2-2Z" class="cls-6"/><line x1="11.31" x2="18.05" y1="18.83" y2="18.83" class="cls-7"/><line x1="18.33" x2="25.82" y1="18.83" y2="18.83" class="cls-7"/><path d="M12.78,51.51c-1.37,0-1.5-.13-1.5-1.5V38.51h7.28v13Z" class="cls-3"/><path d="M18.06,39V51H12.78a3.25,3.25,0,0,1-.9-.08h0a2.18,2.18,0,0,1-.1-.92V39h6.28m1-1H10.78V50c0,1.65.35,2,2,2h6.28V38Z" class="cls-4"/><path d="M18.57,51.51v-13h7.28V50c0,1.37-.13,1.5-1.5,1.5Z" class="cls-3"/><path d="M25.35,39V50a3.28,3.28,0,0,1-.08.9,2.18,2.18,0,0,1-.92.1H19.07V39h6.28m1-1H18.07V52h6.28c1.65,0,2-.35,2-2V38Z" class="cls-4"/><line x1="18.33" x2="25.82" y1="44.86" y2="44.86" class="cls-8"/><line x1="11.31" x2="18.05" y1="44.86" y2="44.86" class="cls-8"/><rect width="7.28" height="13" x="18.57" y="25.49" class="cls-1"/><path d="M25.35,26V38H19.07V26h6.28m1-1H18.07V39h8.28V25Z" class="cls-2"/><line x1="18.33" x2="25.82" y1="31.84" y2="31.84" class="cls-9"/><rect width="7.28" height="13" x="11.28" y="25.49" class="cls-1"/><path d="M18.06,26V38H11.78V26h6.28m1-1H10.78V39h8.28V25Z" class="cls-2"/><line x1="11.31" x2="18.05" y1="31.84" y2="31.84" class="cls-9"/><rect width="25" height="25.99" x="6.25" y="18.84" class="cls-10" rx="2" ry="2"/><polygon points="39.32 22.95 36.68 24.93 36.68 20.98 39.32 22.95" class="cls-11"/><line x1="37.14" x2="31.25" y1="23.05" y2="23.09" class="cls-10"/><polygon points="39.32 31.84 36.68 33.82 36.68 29.86 39.32 31.84" class="cls-11"/><line x1="37.14" x2="31.25" y1="31.94" y2="31.98" class="cls-10"/><polygon points="39.32 40.6 36.68 42.58 36.68 38.63 39.32 40.6" class="cls-11"/><line x1="37.14" x2="31.25" y1="40.7" y2="40.75" class="cls-10"/></g></svg>