<svg xmlns="http://www.w3.org/2000/svg" xmlns:xlink="http://www.w3.org/1999/xlink" id="Layer_1" x="0" y="0" version="1.1" viewBox="0 0 16 16" xml:space="preserve" style="enable-background:new 0 0 16 16"><style type="text/css">.st0{fill:#ddf99d;stroke:#1a6016;stroke-width:.6165;stroke-miterlimit:10}.st1{fill:#1a6016}</style><g><path d="M5.2,6.4V5.2C5.2,3.5,6.4,2,8,2l0,0c1.6,0,2.8,1.4,2.8,3.2v1.2" class="st0"/><g><g><path d="M11.9,14H4.1C3.4,14,3,13.5,3,13V7.4c0-0.6,0.5-1,1.1-1h7.9c0.6,0,1.1,0.5,1.1,1v5.5 C13.1,13.5,12.5,14,11.9,14z" class="st0"/></g><g><path d="M8,11.4L8,11.4c-0.7,0-1.2-0.5-1.2-1.2l0,0C6.8,9.5,7.3,9,8,9l0,0c0.7,0,1.2,0.5,1.2,1.2l0,0 C9.2,10.9,8.7,11.4,8,11.4z" class="st1"/></g></g></g></svg>