<svg xmlns="http://www.w3.org/2000/svg" viewBox="0 0 16 16"><defs><style>.cls-1,.cls-2{fill:#e3ff8d}.cls-2{stroke:#9cc71c;stroke-linecap:round;stroke-linejoin:round;stroke-width:.75px}</style></defs><title>mview</title><g id="_2" data-name="2"><path d="M2.71,2.41H13.1a.5.5,0,0,1,.5.5V13.1a.5.5,0,0,1-.5.5H2.9a.5.5,0,0,1-.5-.5V2.71A.3.3,0,0,1,2.71,2.41Z" class="cls-1"/><path d="M2.41,13.1V2.71a.3.3,0,0,1,.3-.3H13.1a.5.5,0,0,1,.5.5V9.25" class="cls-2"/><path d="M7.79,11.56H4.64a.31.31,0,0,1-.3-.3V4.74a.31.31,0,0,1,.3-.3h6.72a.31.31,0,0,1,.3.3V9.16" class="cls-2"/><rect width="3.46" height="3.48" x="6.27" y="6.26" class="cls-2" rx=".3" ry=".3"/><polyline points="2.41 13.2 9.73 13.2 9.73 10.67 11.66 12.15 13.59 10.67 13.59 13.2" class="cls-2"/></g></svg>