<svg xmlns="http://www.w3.org/2000/svg" viewBox="0 0 16 16"><defs><style>.cls-1{fill:#edfffd}.cls-2,.cls-3{fill:none;stroke:#2f91a3;stroke-linecap:round;stroke-linejoin:round;stroke-width:.75px}.cls-3{fill:#2f91a3}</style></defs><title>coll-event_trigger</title><g id="_2" data-name="2"><rect width="8" height="8" x="2.8" y="2.71" class="cls-1" rx="1" ry="1"/><path d="M9.8,10.71h-6a1,1,0,0,1-1-1v-6a1,1,0,0,1,1-1h6a1,1,0,0,1,1,1v2" class="cls-2"/><rect width="8" height="8" x="4.7" y="4.41" class="cls-1" rx="1" ry="1"/><polygon points="13.2 12.44 11.69 13.89 11.74 10.93 13.2 12.44" class="cls-3"/><path d="M11.7,12.41h-6a1,1,0,0,1-1-1v-6a1,1,0,0,1,1-1h6a1,1,0,0,1,1,1v2" class="cls-2"/></g></svg>