<svg xmlns="http://www.w3.org/2000/svg" viewBox="0 0 16 16"><defs><style>.cls-1{fill:#fefabf}.cls-2,.cls-3{fill:none;stroke:#b9871b;stroke-linecap:round;stroke-linejoin:round;stroke-width:.75px}.cls-3{fill:#409ff4}</style></defs><title>coll-package</title><g id="_2" data-name="2"><polygon points="2.34 3.92 2.34 6.66 4.72 8.04 7.1 6.66 7.1 3.92 4.72 2.54 2.34 3.92" class="cls-1"/><polygon points="8.89 3.9 8.89 6.65 11.27 8.02 13.65 6.65 13.65 3.9 11.27 2.53 8.89 3.9" class="cls-1"/><polygon points="5.63 9.37 5.63 12.11 8.01 13.49 10.39 12.11 10.39 9.37 8.01 7.99 5.63 9.37" class="cls-1"/><line x1="8" x2="8" y1="10.73" y2="13.87" class="cls-2"/><line x1="10.73" x2="10.73" y1="9.17" y2="12.3" class="cls-2"/><line x1="5.27" x2="5.27" y1="9.17" y2="12.3" class="cls-2"/><line x1="8" x2="10.72" y1="10.73" y2="9.17" class="cls-2"/><line x1="5.28" x2="8" y1="9.15" y2="7.58" class="cls-2"/><line x1="8" x2="10.72" y1="13.87" y2="12.3" class="cls-2"/><line x1="8" x2="5.28" y1="10.73" y2="9.17" class="cls-2"/><line x1="10.72" x2="8" y1="9.15" y2="7.58" class="cls-2"/><line x1="8" x2="5.28" y1="13.87" y2="12.3" class="cls-2"/><line x1="11.27" x2="11.27" y1="5.28" y2="8.42" class="cls-3"/><line x1="14" x2="14" y1="3.72" y2="6.85" class="cls-3"/><line x1="8.54" x2="8.54" y1="3.72" y2="6.85" class="cls-3"/><line x1="11.27" x2="13.99" y1="5.28" y2="3.72" class="cls-3"/><line x1="8.55" x2="11.27" y1="3.7" y2="2.13" class="cls-3"/><line x1="11.27" x2="13.99" y1="8.42" y2="6.85" class="cls-3"/><line x1="11.27" x2="8.55" y1="5.28" y2="3.72" class="cls-3"/><line x1="13.99" x2="11.27" y1="3.7" y2="2.13" class="cls-3"/><line x1="11.27" x2="8.55" y1="8.42" y2="6.85" class="cls-3"/><line x1="4.73" x2="4.73" y1="5.28" y2="8.42" class="cls-2"/><line x1="7.46" x2="7.46" y1="3.72" y2="6.85" class="cls-2"/><line x1="2" x2="2" y1="3.72" y2="6.85" class="cls-2"/><line x1="4.73" x2="7.45" y1="5.28" y2="3.72" class="cls-2"/><line x1="2.01" x2="4.73" y1="3.7" y2="2.13" class="cls-2"/><line x1="4.73" x2="7.45" y1="8.42" y2="6.85" class="cls-2"/><line x1="4.73" x2="2.01" y1="5.28" y2="3.72" class="cls-2"/><line x1="7.45" x2="4.73" y1="3.7" y2="2.13" class="cls-2"/><line x1="4.73" x2="2.01" y1="8.42" y2="6.85" class="cls-2"/></g></svg>