<svg xmlns="http://www.w3.org/2000/svg" viewBox="0 0 16 16"><defs><style>.cls-1,.cls-3,.cls-5,.cls-6{fill:#f2f2f2}.cls-2{fill:#aaa}.cls-3{stroke:#aaa}.cls-3,.cls-5{stroke-miterlimit:1}.cls-3,.cls-5,.cls-6{stroke-width:.75px}.cls-4{fill:#7b7b97}.cls-5,.cls-6{stroke:#7b7b97}.cls-6{stroke-linecap:round;stroke-linejoin:round}</style></defs><title>foreign_server</title><g id="_2" data-name="2"><rect width="9.85" height="3.1" x="2.53" y="3.15" class="cls-1" rx="1.13" ry="1.13"/><path d="M11.26,3.53a.75.75,0,0,1,.75.75v.85a.75.75,0,0,1-.75.75H3.66a.75.75,0,0,1-.75-.75V4.28a.75.75,0,0,1,.75-.75h7.6m0-.75H3.66a1.5,1.5,0,0,0-1.5,1.5v.85a1.5,1.5,0,0,0,1.5,1.5h7.6a1.5,1.5,0,0,0,1.5-1.5V4.28a1.5,1.5,0,0,0-1.5-1.5Z" class="cls-2"/><line x1="5.83" x2="3.73" y1="4.7" y2="4.7" class="cls-3"/><rect width="9.85" height="3.1" x="2.53" y="7" class="cls-1" rx="1.13" ry="1.13"/><path d="M11.26,7.38a.75.75,0,0,1,.75.75V9a.75.75,0,0,1-.75.75H3.66A.75.75,0,0,1,2.91,9V8.13a.75.75,0,0,1,.75-.75h7.6m0-.75H3.66a1.5,1.5,0,0,0-1.5,1.5V9a1.5,1.5,0,0,0,1.5,1.5h7.6A1.5,1.5,0,0,0,12.76,9V8.13a1.5,1.5,0,0,0-1.5-1.5Z" class="cls-4"/><line x1="5.83" x2="3.73" y1="8.55" y2="8.55" class="cls-5"/><rect width="9.85" height="3.1" x="2.53" y="10.85" class="cls-1" rx="1.12" ry="1.12"/><path d="M11.26,11.23A.75.75,0,0,1,12,12v.85a.75.75,0,0,1-.75.75H3.66a.75.75,0,0,1-.75-.75V12a.75.75,0,0,1,.75-.75h7.6m0-.75H3.66A1.5,1.5,0,0,0,2.16,12v.85a1.5,1.5,0,0,0,1.5,1.5h7.6a1.5,1.5,0,0,0,1.5-1.5V12a1.5,1.5,0,0,0-1.5-1.5Z" class="cls-2"/><line x1="5.83" x2="3.73" y1="12.4" y2="12.4" class="cls-3"/><line x1="12.15" x2="13.53" y1="3.36" y2="1.98" class="cls-5"/><line x1="11.84" x2="13.84" y1="1.67" y2="1.67" class="cls-6"/><line x1="13.84" x2="13.84" y1="3.67" y2="1.67" class="cls-6"/></g></svg>