<svg xmlns="http://www.w3.org/2000/svg" viewBox="0 0 16 16"><defs><style>.cls-1{fill:#cbdff1}.cls-2,.cls-3,.cls-4,.cls-6{fill:none;stroke-linecap:round;stroke-linejoin:round;stroke-width:.75px}.cls-2{stroke:#717f8e}.cls-3{stroke:#c42e2e}.cls-4{stroke:#6f6f6f}.cls-5{fill:#81602b}.cls-6{stroke:#def4fd}</style></defs><title>coll-domain_constraints</title><g id="_2" data-name="2"><polygon points="10.53 12.08 3.31 12.15 3.31 6.62 6.95 2.84 10.6 6.48 10.53 12.08" class="cls-1"/><line x1="3.31" x2="3.31" y1="6.48" y2="12.15" class="cls-2"/><line x1="3.31" x2="10.6" y1="12.15" y2="12.15" class="cls-2"/><line x1="10.6" x2="10.6" y1="12.15" y2="6.48" class="cls-2"/><line x1="2.09" x2="6.95" y1="7.7" y2="2.84" class="cls-3"/><line x1="6.95" x2="11.81" y1="2.84" y2="7.7" class="cls-3"/><polygon points="12.63 13.09 5.4 13.16 5.4 7.63 9.05 3.85 12.69 7.49 12.63 13.09" class="cls-1"/><line x1="5.4" x2="5.4" y1="7.49" y2="13.16" class="cls-4"/><line x1="5.4" x2="12.69" y1="13.16" y2="13.16" class="cls-4"/><line x1="12.69" x2="12.69" y1="13.16" y2="7.49" class="cls-4"/><line x1="4.19" x2="9.05" y1="8.71" y2="3.85" class="cls-3"/><line x1="9.05" x2="13.91" y1="3.85" y2="8.71" class="cls-3"/><circle cx="9.05" cy="9.62" r="2.51" class="cls-5"/><polyline points="7.67 10.05 8.68 10.91 10.33 8.66" class="cls-6"/></g></svg>